# xmcd CD database file
#
# Track frame offsets:
#	150
#	37950
#	55720
#	66810
#	86102
#	112745
#	147095
#	165330
#	186852
#	209217
#
# Disc length: 3073 seconds
#
# Revision: 4
# Processed by: cddbd v1.5.2PL0 Copyright (c) Steve Scherf et al.
# Submitted via: CDex 1.51
#
DISCID=850bff0a
DTITLE=Falco - Falco 3
DYEAR=1985
DGENRE=Rock
TTITLE0=Rock Me Amadeus (The Solieri Version)
TTITLE1=America (The City Of Grinzing Version)
TTITLE2=Tango The Night (The Love Mix)
TTITLE3=Munich Girls (Lookin' For Love) (Just Another Paid One)
TTITLE4=Jeanny (Sus-Mix Spect Crime Version)
TTITLE5=Vienna Calling (The Metternich Arrival-Mix)
TTITLE6=Manner Des Westens - Any Kind Of Land (Wilde Bube Version)
TTITLE7=Nothin' Sweeter Than Arabia (The Relevant Madhouse Danceteria Jour-Fix-Mix)
TTITLE8=Macho Macho (Sensible Boy's Song)
TTITLE9=It's All Over Now, Baby Blue (No Mix)
EXTD=YEAR: 1985
EXTT0=
EXTT1=
EXTT2=
EXTT3=
EXTT4=
EXTT5=
EXTT6=
EXTT7=
EXTT8=
EXTT9=
PLAYORDER=
